<svg xmlns="http://www.w3.org/2000/svg" width="48" height="48" viewBox="0 0 48 48">
    <g fill="none" fill-rule="evenodd">
        <g>
            <g>
                <path d="M0 0L48 0 48 48 0 48z" transform="translate(-783 -2154) translate(783 2154)"/>
                <path fill="#00B7B1" fill-rule="nonzero" d="M32 34.02V20h-4v14.02h-6L30 42l8-7.98h-6zM18 6l-8 7.98h6V28h4V13.98h6L18 6zm14 28.02V20h-4v14.02h-6L30 42l8-7.98h-6zM18 6l-8 7.98h6V28h4V13.98h6L18 6z" transform="translate(-783 -2154) translate(783 2154) rotate(45 24 24)"/>
            </g>
        </g>
    </g>
</svg>
