<svg xmlns="http://www.w3.org/2000/svg" width="86" height="86" viewBox="0 0 86 86">
    <g fill="none" fill-rule="evenodd">
        <rect width="86" height="86" fill="#DBF5F4" rx="6"/>
        <rect width="46" height="46" x="20.5" y="20.5" stroke="#00B7B1" rx="6"/>
        <g fill="#00B7B1" transform="translate(28 23)">
            <rect width="24" height="8" y="9" rx="4"/>
            <path d="M22.914 3.893l8.772 8.772c.3.3.3.785 0 1.084l-8.772 8.772a2 2 0 0 1-3.414-1.414v-15.8a2 2 0 0 1 3.414-1.414z"/>
        </g>
        <g fill="#FFF" stroke="#00B7B1">
            <path d="M40.5 48.5v7H56a3.5 3.5 0 0 0 0-7H40.5zM37.44 60.753a1.5 1.5 0 0 0 2.56-1.06v-15.8a1.5 1.5 0 0 0-2.56-1.06l-8.772 8.772a.266.266 0 0 0 0 .376l8.771 8.772z"/>
        </g>
    </g>
</svg>
