<?xml version="1.0" encoding="UTF-8"?>
<svg width="198px" height="198px" viewBox="0 0 198 198" version="1.1" xmlns="http://www.w3.org/2000/svg" xmlns:xlink="http://www.w3.org/1999/xlink">
    <!-- Generator: Sketch 55.2 (78181) - https://sketchapp.com -->
    <title>REGISTER</title>
    <desc>Created with Sketch.</desc>
    <defs>
        <polygon id="path-1" points="0.0001 0.6193 188.381 0.6193 188.381 189 0.0001 189"></polygon>
        <polygon id="path-3" points="0 189 188.381 189 188.381 0.619 0 0.619"></polygon>
    </defs>
    <g id="Page-1" stroke="none" stroke-width="1" fill="none" fill-rule="evenodd">
        <g id="Partnerspage" transform="translate(-170.000000, -3391.000000)">
            <g id="REGISTER" transform="translate(170.000000, 3391.000000)">
                <circle id="Oval" fill="#FFFFFF" cx="99" cy="99" r="99"></circle>
                <g id="Group-43" transform="translate(5.000000, 4.000000)">
                    <g id="Group-17" transform="translate(0.000000, 0.381000)">
                        <g id="Group-3">
                            <mask id="mask-2" fill="white">
                                <use xlink:href="#path-1"></use>
                            </mask>
                            <g id="Clip-2"></g>
                            <path d="M188.3811,94.8093 C188.3811,141.6013 154.2451,180.4323 109.5191,187.7543 C104.5361,188.5743 99.4171,189.0003 94.1911,189.0003 C75.2461,189.0003 57.6081,183.4093 42.8411,173.7773 C17.0451,156.9753 0.0001,127.8823 0.0001,94.8093 C0.0001,42.7913 42.1731,0.6193 94.1911,0.6193 C146.2081,0.6193 188.3811,42.7913 188.3811,94.8093" id="Fill-1" fill="#6844B0" mask="url(#mask-2)"></path>
                        </g>
                        <path d="M117.4454,93.9411 C114.5154,93.9411 112.1414,91.5661 112.1414,88.6371 L112.1414,5.9221 C112.1414,2.9931 114.5154,0.6191 117.4454,0.6191 L163.3274,0.6191 C166.2564,0.6191 168.6314,2.9931 168.6314,5.9221 L168.6314,88.6371 C168.6314,91.5661 166.2564,93.9411 163.3274,93.9411 L117.4454,93.9411 Z" id="Fill-4" fill="#96ABBF"></path>
                        <path d="M114.8313,87.9328 L114.8313,6.6278 C114.8313,4.8028 116.3103,3.3238 118.1353,3.3238 L162.6383,3.3238 C164.4623,3.3238 165.9413,4.8028 165.9413,6.6278 L165.9413,87.9328 C165.9413,89.7568 164.4623,91.2368 162.6383,91.2368 L118.1353,91.2368 C116.3103,91.2368 114.8313,89.7568 114.8313,87.9328" id="Fill-6" fill="#FEFEFE"></path>
                        <path d="M158.0354,47.7141 L121.4974,47.7141 C119.8414,47.7141 118.4974,46.3711 118.4974,44.7141 L118.4974,41.5991 C118.4974,39.9421 119.8414,38.5991 121.4974,38.5991 L158.0354,38.5991 C159.6924,38.5991 161.0354,39.9421 161.0354,41.5991 L161.0354,44.7141 C161.0354,46.3711 159.6924,47.7141 158.0354,47.7141" id="Fill-8" fill="#06B5B0"></path>
                        <mask id="mask-4" fill="white">
                            <use xlink:href="#path-3"></use>
                        </mask>
                        <g id="Clip-11"></g>
                        <polygon id="Fill-10" fill="#DADDDF" mask="url(#mask-4)" points="119.941 15.342 146.865 15.342 146.865 12.726 119.941 12.726"></polygon>
                        <polygon id="Fill-12" fill="#DADDDF" mask="url(#mask-4)" points="119.941 19.551 146.865 19.551 146.865 16.935 119.941 16.935"></polygon>
                        <polygon id="Fill-13" fill="#DADDDF" mask="url(#mask-4)" points="119.941 25.017 146.865 25.017 146.865 22.401 119.941 22.401"></polygon>
                        <polygon id="Fill-14" fill="#DADDDF" mask="url(#mask-4)" points="119.941 29.227 146.865 29.227 146.865 26.611 119.941 26.611"></polygon>
                        <path d="M130.4387,147.7839 L109.5197,187.7539 C104.5367,188.5749 99.4167,188.9999 94.1907,188.9999 C75.2467,188.9999 57.6077,183.4089 42.8417,173.7779 L73.7267,120.8329 L130.4387,147.7839 Z" id="Fill-15" fill="#4D3575" mask="url(#mask-4)"></path>
                        <path d="M118.2092,144.4719 C108.5162,140.8259 95.1472,134.9159 85.7592,129.9789 C81.2622,127.6089 77.6772,125.4669 75.8232,123.8869 C67.2402,116.5949 87.6432,124.5709 89.1472,125.1629 C89.2072,125.1789 89.2382,125.1939 89.2382,125.1939 C89.2382,125.1939 107.9852,132.3639 120.3972,139.4289 C125.1362,142.1179 128.9652,144.8059 130.4382,147.0699 C131.6542,148.9239 126.1692,147.4649 118.2092,144.4719" id="Fill-16" fill="#E69024" mask="url(#mask-4)"></path>
                    </g>
                    <text id="Create" font-family="OpenSans, Open Sans" font-size="6.0768" font-weight="normal" fill="#FEFEFE">
                        <tspan x="130.438" y="43.0425141">Create</tspan>
                    </text>
                    <g id="Group-42" transform="translate(85.000000, 7.381000)">
                        <path d="M55.1463,86.9436 L35.3963,132.4286 L33.2093,137.4716 C23.5163,133.8256 10.1473,127.9166 0.7593,122.9786 L4.1463,118.1636 L5.0433,116.8866 C9.7073,110.2486 10.6643,101.4066 9.8893,93.3396 C9.8743,93.1726 9.8593,93.0206 9.8443,92.8536 C8.5833,78.7396 11.6823,65.2796 16.3613,51.9106 L19.2023,43.7976 C20.5693,39.8786 23.4713,36.7036 27.2383,34.9866 L33.5133,31.0516 L37.7513,28.3936 C38.6023,27.9986 39.5293,27.8006 40.4403,27.8006 C41.0783,27.8006 41.7163,27.8926 42.3393,28.1046 C42.7653,28.2266 43.1753,28.3936 43.5703,28.6216 C47.5203,30.7936 48.0823,36.2476 44.6483,39.1796 L33.5283,46.8516 L31.2943,48.3866 L31.1433,48.4926 C31.1433,48.4926 31.6293,48.8266 32.3583,49.6166 C34.6833,52.1536 39.5143,59.4006 38.5723,75.0936 C38.5723,76.6126 36.5363,86.9436 36.5363,86.9436 L55.1463,86.9436 Z" id="Fill-18" fill="#F1CABA"></path>
                        <path d="M83.6316,8.1057 L91.2276,1.2147 C94.7846,-1.9703 94.9086,6.0727 92.7466,10.3307 L83.6316,27.0417 L83.6316,8.1057 Z" id="Fill-20" fill="#F1CABA"></path>
                        <path d="M83.6316,26.7346 L74.1576,40.5416 C73.4566,41.5636 73.4476,42.9096 74.1356,43.9406 C75.1456,45.4556 77.2536,45.7466 78.6346,44.5606 L83.6316,40.2736 C88.3866,31.8636 88.1616,27.5356 83.6316,26.7346" id="Fill-22" fill="#F1CABA"></path>
                        <path d="M83.6316,40.4075 L74.1576,54.2145 C73.4566,55.2365 73.4476,56.5825 74.1356,57.6135 C75.1456,59.1285 77.2536,59.4195 78.6346,58.2335 L83.6316,53.9465 C88.3866,45.5365 88.1616,41.2085 83.6316,40.4075" id="Fill-24" fill="#F1CABA"></path>
                        <path d="M83.6316,54.0803 L74.1576,67.8873 C73.4566,68.9093 73.4476,70.2553 74.1356,71.2863 C75.1456,72.8013 77.2536,73.0923 78.6346,71.9063 L83.6316,67.6193 C88.3866,59.2093 88.1616,54.8813 83.6316,54.0803" id="Fill-26" fill="#F1CABA"></path>
                        <path d="M36.5364,86.9411 C36.5364,86.9411 33.1054,94.0721 31.4994,95.2401 C29.8944,96.4071 55.1434,86.9411 55.1434,86.9411 L36.5364,86.9411 Z" id="Fill-28" fill="#F1CABA"></path>
                        <polygon id="Fill-30" fill="#F1CABA" points="84.7595 7.0823 85.7215 23.2093 83.6315 26.7343 83.6315 8.1053"></polygon>
                        <path d="M32.3582,49.6164 C30.0792,50.0274 27.1482,51.3944 27.1482,51.3944 L31.1432,48.4924 C31.1432,48.4924 31.6292,48.8264 32.3582,49.6164" id="Fill-32" fill="#F1CABA"></path>
                        <path d="M74.1663,42.841 C74.1663,42.841 76.1243,39.336 76.8463,39.542 C77.5673,39.749 80.0413,41.501 79.8353,42.274 C79.6293,43.047 77.8373,44.336 77.0073,44.593 C76.1763,44.851 74.6473,43.997 74.1663,42.841" id="Fill-34" fill="#FEFEFE"></path>
                        <path d="M76.4851,53.5827 L79.0171,57.0247 C79.0171,57.0247 76.4851,59.7947 74.9421,57.0247 C73.3991,54.2547 76.4851,53.5827 76.4851,53.5827" id="Fill-36" fill="#FEFEFE"></path>
                        <path d="M75.4866,68.5461 L78.2376,71.3671 C78.2376,71.3671 73.5706,73.2481 75.4866,68.5461" id="Fill-38" fill="#FEFEFE"></path>
                        <path d="M42.3396,28.1047 C40.2886,29.4867 34.7286,33.2247 34.0596,33.1637 C33.4526,33.1027 33.4826,31.7207 33.5126,31.0517 L37.7516,28.3937 C38.6026,27.9987 39.5286,27.8007 40.4406,27.8007 C41.0786,27.8007 41.7166,27.8927 42.3396,28.1047" id="Fill-40" fill="#FEFEFE"></path>
                    </g>
                </g>
            </g>
        </g>
    </g>
</svg>