<?xml version="1.0" encoding="UTF-8"?>
<svg width="198px" height="201px" viewBox="0 0 198 201" version="1.1" xmlns="http://www.w3.org/2000/svg" xmlns:xlink="http://www.w3.org/1999/xlink">
    <!-- Generator: Sketch 55.2 (78181) - https://sketchapp.com -->
    <title>Monitor</title>
    <desc>Created with Sketch.</desc>
    <defs>
        <polygon id="path-1" points="9.8974359e-05 0.390456 192.609051 0.390456 192.609051 193.05 9.8974359e-05 193.05"></polygon>
        <path d="M5.741,1.087 C2.205,1.802 -0.081,5.247 0.633,8.782 L0.633,8.782 C1.348,12.317 4.793,14.604 8.328,13.891 L8.328,13.891 C11.863,13.176 14.15,9.731 13.436,6.196 L13.436,6.196 C12.809,3.097 10.084,0.957 7.04,0.957 L7.04,0.957 C6.611,0.957 6.177,0.999 5.741,1.087 L5.741,1.087 Z" id="path-3"></path>
        <path d="M5.741,1.087 C2.205,1.802 -0.081,5.247 0.633,8.782 L0.633,8.782 C1.348,12.317 4.793,14.604 8.328,13.891 L8.328,13.891 C11.863,13.176 14.15,9.731 13.436,6.196 L13.436,6.196 C12.809,3.097 10.084,0.957 7.04,0.957 L7.04,0.957 C6.611,0.957 6.177,0.999 5.741,1.087" id="path-5"></path>
        <path d="M5.741,1.087 C2.205,1.802 -0.081,5.247 0.633,8.782 L0.633,8.782 C1.348,12.317 4.793,14.604 8.328,13.891 L8.328,13.891 C11.863,13.176 14.15,9.731 13.436,6.196 L13.436,6.196 C12.809,3.097 10.084,0.957 7.04,0.957 L7.04,0.957 C6.611,0.957 6.177,0.999 5.741,1.087" id="path-7"></path>
        <path d="M5.741,1.087 C2.205,1.802 -0.081,5.247 0.633,8.782 L0.633,8.782 C1.348,12.317 4.793,14.604 8.328,13.891 L8.328,13.891 C11.863,13.176 14.15,9.731 13.436,6.196 L13.436,6.196 C12.809,3.097 10.084,0.957 7.04,0.957 L7.04,0.957 C6.611,0.957 6.177,0.999 5.741,1.087" id="path-9"></path>
        <path d="M5.741,1.087 C2.205,1.802 -0.081,5.247 0.633,8.782 L0.633,8.782 C1.348,12.317 4.793,14.604 8.328,13.891 L8.328,13.891 C11.863,13.176 14.15,9.731 13.436,6.196 L13.436,6.196 C12.809,3.097 10.084,0.957 7.04,0.957 L7.04,0.957 C6.611,0.957 6.177,0.999 5.741,1.087" id="path-11"></path>
        <path d="M5.741,1.087 C2.205,1.802 -0.081,5.247 0.633,8.782 L0.633,8.782 C1.348,12.317 4.793,14.604 8.328,13.891 L8.328,13.891 C11.863,13.176 14.15,9.731 13.436,6.196 L13.436,6.196 C12.809,3.097 10.084,0.957 7.04,0.957 L7.04,0.957 C6.611,0.957 6.177,0.999 5.741,1.087 L5.741,1.087 Z" id="path-13"></path>
        <path d="M5.741,1.087 C2.205,1.802 -0.081,5.247 0.633,8.782 L0.633,8.782 C1.348,12.317 4.793,14.604 8.328,13.891 L8.328,13.891 C11.863,13.176 14.15,9.731 13.436,6.196 L13.436,6.196 C12.809,3.097 10.084,0.957 7.04,0.957 L7.04,0.957 C6.611,0.957 6.177,0.999 5.741,1.087 L5.741,1.087 Z" id="path-15"></path>
        <path d="M5.741,1.087 C2.205,1.802 -0.081,5.247 0.633,8.782 L0.633,8.782 C1.348,12.317 4.793,14.604 8.328,13.891 L8.328,13.891 C11.863,13.176 14.15,9.731 13.436,6.196 L13.436,6.196 C12.809,3.097 10.084,0.957 7.04,0.957 L7.04,0.957 C6.611,0.957 6.177,0.999 5.741,1.087 L5.741,1.087 Z" id="path-17"></path>
        <path d="M5.741,1.087 C2.205,1.802 -0.081,5.247 0.633,8.782 L0.633,8.782 C1.348,12.317 4.793,14.604 8.328,13.891 L8.328,13.891 C11.863,13.176 14.15,9.731 13.436,6.196 L13.436,6.196 C12.809,3.097 10.084,0.957 7.04,0.957 L7.04,0.957 C6.611,0.957 6.177,0.999 5.741,1.087" id="path-19"></path>
        <path d="M5.741,1.087 C2.205,1.802 -0.081,5.247 0.633,8.782 L0.633,8.782 C1.348,12.317 4.793,14.604 8.328,13.891 L8.328,13.891 C11.863,13.176 14.15,9.731 13.436,6.196 L13.436,6.196 C12.809,3.097 10.084,0.957 7.04,0.957 L7.04,0.957 C6.611,0.957 6.177,0.999 5.741,1.087" id="path-21"></path>
        <path d="M5.741,1.087 C2.205,1.802 -0.081,5.247 0.633,8.782 L0.633,8.782 C1.348,12.317 4.793,14.604 8.328,13.891 L8.328,13.891 C11.863,13.176 14.15,9.731 13.436,6.196 L13.436,6.196 C12.809,3.097 10.084,0.957 7.04,0.957 L7.04,0.957 C6.611,0.957 6.177,0.999 5.741,1.087 L5.741,1.087 Z" id="path-23"></path>
        <path d="M5.741,1.087 C2.205,1.802 -0.081,5.247 0.633,8.782 L0.633,8.782 C1.348,12.317 4.793,14.604 8.328,13.891 L8.328,13.891 C11.863,13.176 14.15,9.731 13.436,6.196 L13.436,6.196 C12.809,3.097 10.084,0.957 7.04,0.957 L7.04,0.957 C6.611,0.957 6.177,0.999 5.741,1.087" id="path-25"></path>
        <path d="M5.741,1.087 C2.205,1.802 -0.081,5.247 0.633,8.782 L0.633,8.782 C1.348,12.317 4.793,14.604 8.328,13.891 L8.328,13.891 C11.863,13.176 14.15,9.731 13.436,6.196 L13.436,6.196 C12.809,3.097 10.084,0.957 7.04,0.957 L7.04,0.957 C6.611,0.957 6.177,0.999 5.741,1.087 L5.741,1.087 Z" id="path-27"></path>
        <path d="M5.741,1.087 C2.205,1.802 -0.081,5.247 0.633,8.782 L0.633,8.782 C1.348,12.317 4.793,14.604 8.328,13.891 L8.328,13.891 C11.863,13.176 14.15,9.731 13.436,6.196 L13.436,6.196 C12.809,3.097 10.084,0.957 7.04,0.957 L7.04,0.957 C6.611,0.957 6.177,0.999 5.741,1.087" id="path-29"></path>
        <path d="M5.308,0.703 C1.773,1.418 -0.514,4.863 0.2,8.398 L0.2,8.398 C0.914,11.933 4.36,14.22 7.895,13.505 L7.895,13.505 C11.43,12.791 13.718,9.346 13.002,5.81 L13.002,5.81 C12.377,2.712 9.652,0.572 6.609,0.572 L6.609,0.572 C6.18,0.572 5.745,0.615 5.308,0.703 L5.308,0.703 Z" id="path-31"></path>
        <path d="M5.308,0.703 C1.773,1.418 -0.514,4.863 0.2,8.398 L0.2,8.398 C0.914,11.933 4.36,14.22 7.895,13.505 L7.895,13.505 C11.43,12.791 13.718,9.346 13.002,5.81 L13.002,5.81 C12.377,2.712 9.652,0.572 6.609,0.572 L6.609,0.572 C6.18,0.572 5.745,0.615 5.308,0.703" id="path-33"></path>
        <path d="M5.308,0.703 C1.773,1.418 -0.514,4.863 0.2,8.398 L0.2,8.398 C0.914,11.933 4.36,14.22 7.895,13.505 L7.895,13.505 C11.43,12.791 13.718,9.346 13.002,5.81 L13.002,5.81 C12.377,2.712 9.652,0.572 6.609,0.572 L6.609,0.572 C6.18,0.572 5.745,0.615 5.308,0.703" id="path-35"></path>
        <path d="M5.308,0.703 C1.773,1.418 -0.514,4.863 0.2,8.398 L0.2,8.398 C0.914,11.933 4.36,14.22 7.895,13.505 L7.895,13.505 C11.43,12.791 13.718,9.346 13.002,5.81 L13.002,5.81 C12.377,2.712 9.652,0.572 6.609,0.572 L6.609,0.572 C6.18,0.572 5.745,0.615 5.308,0.703" id="path-37"></path>
        <path d="M5.308,0.703 C1.773,1.418 -0.514,4.863 0.2,8.398 L0.2,8.398 C0.914,11.933 4.36,14.22 7.895,13.505 L7.895,13.505 C11.43,12.791 13.718,9.346 13.002,5.81 L13.002,5.81 C12.377,2.712 9.652,0.572 6.609,0.572 L6.609,0.572 C6.18,0.572 5.745,0.615 5.308,0.703" id="path-39"></path>
        <path d="M5.308,0.703 C1.773,1.418 -0.514,4.863 0.2,8.398 L0.2,8.398 C0.914,11.933 4.36,14.22 7.895,13.505 L7.895,13.505 C11.43,12.791 13.718,9.346 13.002,5.81 L13.002,5.81 C12.377,2.712 9.652,0.572 6.609,0.572 L6.609,0.572 C6.18,0.572 5.745,0.615 5.308,0.703 L5.308,0.703 Z" id="path-41"></path>
        <path d="M5.308,0.703 C1.773,1.418 -0.514,4.863 0.2,8.398 L0.2,8.398 C0.914,11.933 4.36,14.22 7.895,13.505 L7.895,13.505 C11.43,12.791 13.718,9.346 13.002,5.81 L13.002,5.81 C12.377,2.712 9.652,0.572 6.609,0.572 L6.609,0.572 C6.18,0.572 5.745,0.615 5.308,0.703 L5.308,0.703 Z" id="path-43"></path>
        <path d="M5.308,0.703 C1.773,1.418 -0.514,4.863 0.2,8.398 L0.2,8.398 C0.914,11.933 4.36,14.22 7.895,13.505 L7.895,13.505 C11.43,12.791 13.718,9.346 13.002,5.81 L13.002,5.81 C12.377,2.712 9.652,0.572 6.609,0.572 L6.609,0.572 C6.18,0.572 5.745,0.615 5.308,0.703 L5.308,0.703 Z" id="path-45"></path>
        <path d="M5.308,0.703 C1.773,1.418 -0.514,4.863 0.2,8.398 L0.2,8.398 C0.914,11.933 4.36,14.22 7.895,13.505 L7.895,13.505 C11.43,12.791 13.718,9.346 13.002,5.81 L13.002,5.81 C12.377,2.712 9.652,0.572 6.609,0.572 L6.609,0.572 C6.18,0.572 5.745,0.615 5.308,0.703" id="path-47"></path>
        <path d="M5.308,0.703 C1.773,1.418 -0.514,4.863 0.2,8.398 L0.2,8.398 C0.914,11.933 4.36,14.22 7.895,13.505 L7.895,13.505 C11.43,12.791 13.718,9.346 13.002,5.81 L13.002,5.81 C12.377,2.712 9.652,0.572 6.609,0.572 L6.609,0.572 C6.18,0.572 5.745,0.615 5.308,0.703" id="path-49"></path>
        <path d="M5.308,0.703 C1.773,1.418 -0.514,4.863 0.2,8.398 L0.2,8.398 C0.914,11.933 4.36,14.22 7.895,13.505 L7.895,13.505 C11.43,12.791 13.718,9.346 13.002,5.81 L13.002,5.81 C12.377,2.712 9.652,0.572 6.609,0.572 L6.609,0.572 C6.18,0.572 5.745,0.615 5.308,0.703 L5.308,0.703 Z" id="path-51"></path>
        <path d="M5.308,0.703 C1.773,1.418 -0.514,4.863 0.2,8.398 L0.2,8.398 C0.914,11.933 4.36,14.22 7.895,13.505 L7.895,13.505 C11.43,12.791 13.718,9.346 13.002,5.81 L13.002,5.81 C12.377,2.712 9.652,0.572 6.609,0.572 L6.609,0.572 C6.18,0.572 5.745,0.615 5.308,0.703" id="path-53"></path>
        <path d="M5.308,0.703 C1.773,1.418 -0.514,4.863 0.2,8.398 L0.2,8.398 C0.914,11.933 4.36,14.22 7.895,13.505 L7.895,13.505 C11.43,12.791 13.718,9.346 13.002,5.81 L13.002,5.81 C12.377,2.712 9.652,0.572 6.609,0.572 L6.609,0.572 C6.18,0.572 5.745,0.615 5.308,0.703 L5.308,0.703 Z" id="path-55"></path>
        <path d="M5.308,0.703 C1.773,1.418 -0.514,4.863 0.2,8.398 L0.2,8.398 C0.914,11.933 4.36,14.22 7.895,13.505 L7.895,13.505 C11.43,12.791 13.718,9.346 13.002,5.81 L13.002,5.81 C12.377,2.712 9.652,0.572 6.609,0.572 L6.609,0.572 C6.18,0.572 5.745,0.615 5.308,0.703" id="path-57"></path>
        <path d="M5.828,0.753 C2.293,1.467 0.006,4.912 0.72,8.448 L0.72,8.448 C1.434,11.983 4.878,14.27 8.415,13.555 L8.415,13.555 C11.95,12.841 14.236,9.396 13.522,5.861 L13.522,5.861 C12.897,2.762 10.172,0.623 7.129,0.623 L7.129,0.623 C6.7,0.623 6.265,0.665 5.828,0.753 L5.828,0.753 Z" id="path-59"></path>
        <path d="M5.828,0.753 C2.293,1.467 0.006,4.912 0.72,8.448 L0.72,8.448 C1.434,11.983 4.878,14.27 8.415,13.555 L8.415,13.555 C11.95,12.841 14.236,9.396 13.522,5.861 L13.522,5.861 C12.897,2.762 10.172,0.623 7.129,0.623 L7.129,0.623 C6.7,0.623 6.265,0.665 5.828,0.753" id="path-61"></path>
        <path d="M5.828,0.753 C2.293,1.467 0.006,4.912 0.72,8.448 L0.72,8.448 C1.434,11.983 4.878,14.27 8.415,13.555 L8.415,13.555 C11.95,12.841 14.236,9.396 13.522,5.861 L13.522,5.861 C12.897,2.762 10.172,0.623 7.129,0.623 L7.129,0.623 C6.7,0.623 6.265,0.665 5.828,0.753" id="path-63"></path>
        <path d="M5.828,0.753 C2.293,1.467 0.006,4.912 0.72,8.448 L0.72,8.448 C1.434,11.983 4.878,14.27 8.415,13.555 L8.415,13.555 C11.95,12.841 14.236,9.396 13.522,5.861 L13.522,5.861 C12.897,2.762 10.172,0.623 7.129,0.623 L7.129,0.623 C6.7,0.623 6.265,0.665 5.828,0.753" id="path-65"></path>
        <path d="M5.828,0.753 C2.293,1.467 0.006,4.912 0.72,8.448 L0.72,8.448 C1.434,11.983 4.878,14.27 8.415,13.555 L8.415,13.555 C11.95,12.841 14.236,9.396 13.522,5.861 L13.522,5.861 C12.897,2.762 10.172,0.623 7.129,0.623 L7.129,0.623 C6.7,0.623 6.265,0.665 5.828,0.753" id="path-67"></path>
        <path d="M5.828,0.753 C2.293,1.467 0.006,4.912 0.72,8.448 L0.72,8.448 C1.434,11.983 4.878,14.27 8.415,13.555 L8.415,13.555 C11.95,12.841 14.236,9.396 13.522,5.861 L13.522,5.861 C12.897,2.762 10.172,0.623 7.129,0.623 L7.129,0.623 C6.7,0.623 6.265,0.665 5.828,0.753 L5.828,0.753 Z" id="path-69"></path>
        <path d="M5.828,0.753 C2.293,1.467 0.006,4.912 0.72,8.448 L0.72,8.448 C1.434,11.983 4.878,14.27 8.415,13.555 L8.415,13.555 C11.95,12.841 14.236,9.396 13.522,5.861 L13.522,5.861 C12.897,2.762 10.172,0.623 7.129,0.623 L7.129,0.623 C6.7,0.623 6.265,0.665 5.828,0.753 L5.828,0.753 Z" id="path-71"></path>
        <path d="M5.828,0.753 C2.293,1.467 0.006,4.912 0.72,8.448 L0.72,8.448 C1.434,11.983 4.878,14.27 8.415,13.555 L8.415,13.555 C11.95,12.841 14.236,9.396 13.522,5.861 L13.522,5.861 C12.897,2.762 10.172,0.623 7.129,0.623 L7.129,0.623 C6.7,0.623 6.265,0.665 5.828,0.753 L5.828,0.753 Z" id="path-73"></path>
        <path d="M5.828,0.753 C2.293,1.467 0.006,4.912 0.72,8.448 L0.72,8.448 C1.434,11.983 4.878,14.27 8.415,13.555 L8.415,13.555 C11.95,12.841 14.236,9.396 13.522,5.861 L13.522,5.861 C12.897,2.762 10.172,0.623 7.129,0.623 L7.129,0.623 C6.7,0.623 6.265,0.665 5.828,0.753" id="path-75"></path>
        <path d="M5.828,0.753 C2.293,1.467 0.006,4.912 0.72,8.448 L0.72,8.448 C1.434,11.983 4.878,14.27 8.415,13.555 L8.415,13.555 C11.95,12.841 14.236,9.396 13.522,5.861 L13.522,5.861 C12.897,2.762 10.172,0.623 7.129,0.623 L7.129,0.623 C6.7,0.623 6.265,0.665 5.828,0.753" id="path-77"></path>
        <path d="M5.828,0.753 C2.293,1.467 0.006,4.912 0.72,8.448 L0.72,8.448 C1.434,11.983 4.878,14.27 8.415,13.555 L8.415,13.555 C11.95,12.841 14.236,9.396 13.522,5.861 L13.522,5.861 C12.897,2.762 10.172,0.623 7.129,0.623 L7.129,0.623 C6.7,0.623 6.265,0.665 5.828,0.753 L5.828,0.753 Z" id="path-79"></path>
        <path d="M5.828,0.753 C2.293,1.467 0.006,4.912 0.72,8.448 L0.72,8.448 C1.434,11.983 4.878,14.27 8.415,13.555 L8.415,13.555 C11.95,12.841 14.236,9.396 13.522,5.861 L13.522,5.861 C12.897,2.762 10.172,0.623 7.129,0.623 L7.129,0.623 C6.7,0.623 6.265,0.665 5.828,0.753" id="path-81"></path>
        <path d="M5.828,0.753 C2.293,1.467 0.006,4.912 0.72,8.448 L0.72,8.448 C1.434,11.983 4.878,14.27 8.415,13.555 L8.415,13.555 C11.95,12.841 14.236,9.396 13.522,5.861 L13.522,5.861 C12.897,2.762 10.172,0.623 7.129,0.623 L7.129,0.623 C6.7,0.623 6.265,0.665 5.828,0.753 L5.828,0.753 Z" id="path-83"></path>
        <path d="M5.828,0.753 C2.293,1.467 0.006,4.912 0.72,8.448 L0.72,8.448 C1.434,11.983 4.878,14.27 8.415,13.555 L8.415,13.555 C11.95,12.841 14.236,9.396 13.522,5.861 L13.522,5.861 C12.897,2.762 10.172,0.623 7.129,0.623 L7.129,0.623 C6.7,0.623 6.265,0.665 5.828,0.753" id="path-85"></path>
    </defs>
    <g id="Page-1" stroke="none" stroke-width="1" fill="none" fill-rule="evenodd">
        <g id="Partnerspage" transform="translate(-1018.000000, -3388.000000)">
            <g id="Monitor" transform="translate(1018.000000, 3388.000000)">
                <g id="Add-Copy-2" transform="translate(0.000000, 3.000000)" fill="#FFFFFF">
                    <circle id="Oval-Copy" cx="99" cy="99" r="99"></circle>
                </g>
                <g id="Group-176" transform="translate(3.000000, 0.000000)">
                    <g id="Group-32">
                        <g id="Group-3" transform="translate(0.000000, 4.950000)">
                            <mask id="mask-2" fill="white">
                                <use xlink:href="#path-1"></use>
                            </mask>
                            <g id="Clip-2"></g>
                            <path d="M192.609051,96.37997 C192.609051,109.22918 190.093123,121.47251 185.526446,132.67436 C174.218626,160.47059 150.297513,181.78727 120.877385,189.53996 C117.973477,190.30127 114.99039,190.93883 111.97761,191.43581 C106.88241,192.27434 101.648646,192.70994 96.3040308,192.70994 C76.9347487,192.70994 58.9006308,186.9917 43.8030821,177.1412 C17.4283949,159.95777 1.42108547e-14,130.20431 1.42108547e-14,96.37997 C1.42108547e-14,43.18133 43.1191692,0.05 96.3040308,0.05 C149.489882,0.05 192.609051,43.18133 192.609051,96.37997" id="Fill-1" fill="#6844B0" mask="url(#mask-2)"></path>
                        </g>
                        <path d="M53.3288692,86.249493 L29.8848128,68.623533 C28.1517718,67.320693 29.4889154,64.581363 31.5812333,65.147643 L53.3288692,71.032203 L53.3288692,86.249493 Z" id="Fill-4" fill="#F1CABA"></path>
                        <path d="M49.2220272,62.594433 L20.3254733,48.398823 C18.2351349,47.372193 19.3426579,44.207163 21.6151092,44.706123 L53.3284733,51.671763 L49.2220272,62.594433 Z" id="Fill-6" fill="#F1CABA"></path>
                        <path d="M50.2813497,48.582072 L26.8768831,35.633862 C24.8865087,34.533972 26.035601,31.495662 28.2546062,31.987692 L46.5856472,36.046692 L50.2813497,48.582072 Z" id="Fill-8" fill="#F1CABA"></path>
                        <path d="M50.8999395,29.159163 L38.2242933,5.601123 C37.1474523,3.598353 39.7574062,1.665873 41.3578215,3.280563 L54.5748574,16.617843 L50.8999395,29.159163 Z" id="Fill-10" fill="#F1CABA"></path>
                        <path d="M99.6941005,94.400064 L53.3691518,103.751604 C50.5266082,104.325804 47.7582954,102.486384 47.1842441,99.643104 L30.3853262,16.382124 C29.8122646,13.539834 31.6502185,10.769814 34.4917723,10.196604 L80.8177108,0.845064 C83.6592646,0.270864 86.4285672,2.110284 87.0016287,4.952574 L103.800547,88.213554 C104.374598,91.056834 102.535654,93.825864 99.6941005,94.400064" id="Fill-12" fill="#96ABBF"></path>
                        <path d="M60.8119246,59.231898 C60.8119246,56.542068 58.6315195,54.361098 55.9423862,54.361098 C53.2522631,54.361098 51.0718579,56.542068 51.0718579,59.231898 C51.0718579,61.922718 53.2522631,64.102698 55.9423862,64.102698 C58.6315195,64.102698 60.8119246,61.922718 60.8119246,59.231898" id="Fill-14" fill="#96ABBF"></path>
                        <path d="M60.8119246,59.231898 C60.8119246,56.542068 58.6315195,54.361098 55.9423862,54.361098 C53.2522631,54.361098 51.0718579,56.542068 51.0718579,59.231898 C51.0718579,61.922718 53.2522631,64.102698 55.9423862,64.102698 C58.6315195,64.102698 60.8119246,61.922718 60.8119246,59.231898" id="Fill-16" fill="#FEFEFE"></path>
                        <path d="M49.7256087,98.328681 L33.2364805,16.609131 C32.8791831,14.838021 34.0253062,13.113441 35.7949677,12.755061 L80.6085779,3.708441 C82.3792292,3.351051 84.1033626,4.497471 84.4616497,6.267591 L100.949788,87.988131 C101.307086,89.758251 100.161952,91.482831 98.391301,91.841211 L53.5776908,100.887831 C51.8080292,101.245221 50.0819164,100.099791 49.7256087,98.328681" id="Fill-18" fill="#FEFEFE"></path>
                        <polygon id="Fill-20" fill="#DADDDF" points="69.0081892 20.97909 56.9293585 23.23827 56.4374559 20.60784 68.5162867 18.34965"></polygon>
                        <polygon id="Fill-22" fill="#DADDDF" points="80.3100713 23.099274 57.9557226 27.280044 57.46382 24.649614 79.8181687 20.469834"></polygon>
                        <polygon id="Fill-24" fill="#DADDDF" points="72.6878579 38.984715 60.6090272 41.243895 60.1181144 38.613465 72.1969451 36.355275"></polygon>
                        <polygon id="Fill-26" fill="#DADDDF" points="83.989641 41.104899 61.6352923 45.285669 61.1443795 42.655239 83.4987282 38.475459"></polygon>
                        <path d="M153.590687,119.95731 C148.138189,123.22035 140.527061,127.36845 131.983594,131.65713 C125.165251,135.09045 118.780415,138.105 113.484297,140.40378 C112.987446,138.97422 112.474758,137.59218 111.962071,136.23984 C107.333041,124.02819 102.035933,115.34292 96.3043277,115.20333 C76.60942,114.7212 75.1178764,99.35541 75.1178764,99.35541 L92.8095431,96.27948 C93.6795277,86.6151 97.0347585,79.71678 100.172246,75.24198 C103.713548,70.17615 102.890082,63.27882 98.4787944,58.95945 C95.5283687,56.0538 92.0949482,53.62929 88.926779,53.72334 C84.7173995,53.83224 79.5598456,51.56316 75.6760918,49.41981 C73.486779,48.20706 73.9687841,44.92917 76.4223585,44.4312 L86.3168251,42.36606 C92.7937072,41.02857 99.5358405,41.8374 105.530717,44.66484 L117.429415,50.28903 C123.471799,53.14815 127.556471,58.99014 128.193866,65.65581 L130.772148,92.65905 C131.268999,97.87932 133.755235,102.69567 137.699364,106.12899 L150.359174,117.14571 L153.590687,119.95731 Z" id="Fill-28" fill="#F1CABA"></path>
                        <path d="M53.8768903,25.933446 C53.1702133,22.433796 49.7605467,20.169666 46.2618031,20.876526 C42.7630595,21.583386 40.4985262,24.994926 41.2061928,28.494576 C41.9128697,31.994226 45.3225364,34.258356 48.8222697,33.551496 C52.3210133,32.843646 54.5845569,29.434086 53.8768903,25.933446" id="Fill-30" fill="#F2B81A"></path>
                    </g>
                    <g id="Group-75" transform="translate(41.000000, 20.000000)">
                        <g id="Group-35">
                            <mask id="mask-4" fill="white">
                                <use xlink:href="#path-3"></use>
                            </mask>
                            <g id="Clip-34"></g>
                            <polygon id="Fill-33" fill="#F69C85" mask="url(#mask-4)" points="8.4264 11.3604 6.7114 11.7074 6.3294 9.8164 8.0444 9.4704"></polygon>
                        </g>
                        <g id="Group-38">
                            <mask id="mask-6" fill="white">
                                <use xlink:href="#path-5"></use>
                            </mask>
                            <g id="Clip-37"></g>
                            <path d="M9.1393,4.7393 L9.5963,7.0013 C9.9123,8.5653 8.9043,10.0853 7.3403,10.4013 C5.7763,10.7173 4.2563,9.7083 3.9413,8.1443 L3.4843,5.8823 C3.2573,4.7643 3.7083,3.6693 4.5613,3.0253 C5.2573,2.8363 6.0433,2.6153 6.5973,2.4413 C7.0703,2.4843 7.5193,2.6493 7.9103,2.9093 C8.3743,3.2173 8.7563,3.6673 8.9693,4.2053 C9.0443,4.3703 9.1023,4.5523 9.1393,4.7393" id="Fill-36" fill="#F69C85" mask="url(#mask-6)"></path>
                        </g>
                        <g id="Group-41">
                            <mask id="mask-8" fill="white">
                                <use xlink:href="#path-7"></use>
                            </mask>
                            <g id="Clip-40"></g>
                            <path d="M4.1354,6.9278 C4.0874,6.6938 3.8604,6.5428 3.6264,6.5908 C3.3934,6.6368 3.2414,6.8648 3.2884,7.0988 C3.3364,7.3318 3.5644,7.4838 3.7974,7.4358 C4.0314,7.3888 4.1824,7.1608 4.1354,6.9278" id="Fill-39" fill="#F69C85" mask="url(#mask-8)"></path>
                        </g>
                        <g id="Group-44">
                            <mask id="mask-10" fill="white">
                                <use xlink:href="#path-9"></use>
                            </mask>
                            <g id="Clip-43"></g>
                            <path d="M9.7907,5.7848 C9.7437,5.5518 9.5167,5.3998 9.2827,5.4478 C9.0497,5.4948 8.8977,5.7228 8.9447,5.9558 C8.9927,6.1898 9.2207,6.3408 9.4537,6.2928 C9.6867,6.2458 9.8387,6.0188 9.7907,5.7848" id="Fill-42" fill="#F69C85" mask="url(#mask-10)"></path>
                        </g>
                        <g id="Group-47">
                            <mask id="mask-12" fill="white">
                                <use xlink:href="#path-11"></use>
                            </mask>
                            <g id="Clip-46"></g>
                            <path d="M9.4274,6.1632 L9.5964,7.0012 C9.9124,8.5652 8.9044,10.0852 7.3404,10.4012 C5.7764,10.7172 4.2564,9.7082 3.9414,8.1442 L3.7124,7.0132 L3.9644,6.9622 C3.9644,6.9622 4.5964,8.9542 5.9204,8.6862 C5.8154,8.0632 7.9974,7.6912 8.1084,8.3072 C8.1084,8.3072 9.5634,8.0682 9.4274,6.1632" id="Fill-45" fill="#5C3C36" mask="url(#mask-12)"></path>
                        </g>
                        <g id="Group-50">
                            <mask id="mask-14" fill="white">
                                <use xlink:href="#path-13"></use>
                            </mask>
                            <g id="Clip-49"></g>
                            <path d="M6.4186,8.6256 C6.5066,9.0586 7.5876,8.8406 7.4996,8.4076 L6.4186,8.6256 Z" id="Fill-48" fill="#F69C85" mask="url(#mask-14)"></path>
                        </g>
                        <g id="Group-53">
                            <mask id="mask-16" fill="white">
                                <use xlink:href="#path-15"></use>
                            </mask>
                            <g id="Clip-52"></g>
                            <path d="M5.7145,6.1685 C5.6265,5.7345 4.5465,5.9535 4.6335,6.3865 L5.7145,6.1685 Z" id="Fill-51" fill="#5C3C36" mask="url(#mask-16)"></path>
                        </g>
                        <g id="Group-56">
                            <mask id="mask-18" fill="white">
                                <use xlink:href="#path-17"></use>
                            </mask>
                            <g id="Clip-55"></g>
                            <path d="M8.4782,5.61 C8.3912,5.177 7.3102,5.395 7.3982,5.828 L8.4782,5.61 Z" id="Fill-54" fill="#5C3C36" mask="url(#mask-18)"></path>
                        </g>
                        <g id="Group-59">
                            <mask id="mask-20" fill="white">
                                <use xlink:href="#path-19"></use>
                            </mask>
                            <g id="Clip-58"></g>
                            <path d="M5.4176,6.3907 C5.3946,6.2737 5.2796,6.1977 5.1626,6.2217 C5.0456,6.2447 4.9696,6.3587 4.9936,6.4757 C5.0176,6.5937 5.1316,6.6687 5.2486,6.6457 C5.3656,6.6217 5.4406,6.5077 5.4176,6.3907" id="Fill-57" fill="#5C3C36" mask="url(#mask-20)"></path>
                        </g>
                        <g id="Group-62">
                            <mask id="mask-22" fill="white">
                                <use xlink:href="#path-21"></use>
                            </mask>
                            <g id="Clip-61"></g>
                            <path d="M8.1813,5.8321 C8.1583,5.7151 8.0433,5.6391 7.9263,5.6631 C7.8093,5.6861 7.7343,5.8011 7.7573,5.9181 C7.7813,6.0351 7.8953,6.1111 8.0123,6.0871 C8.1293,6.0631 8.2053,5.9491 8.1813,5.8321" id="Fill-60" fill="#5C3C36" mask="url(#mask-22)"></path>
                        </g>
                        <g id="Group-65">
                            <mask id="mask-24" fill="white">
                                <use xlink:href="#path-23"></use>
                            </mask>
                            <g id="Clip-64"></g>
                            <polygon id="Fill-63" fill="#5C3C36" mask="url(#mask-24)" points="8.7819 4.3482 9.3679 7.0172 9.5479 6.7582 8.9599 3.8472"></polygon>
                        </g>
                        <g id="Group-68">
                            <mask id="mask-26" fill="white">
                                <use xlink:href="#path-25"></use>
                            </mask>
                            <g id="Clip-67"></g>
                            <path d="M9.3991,3.108 C9.4331,3.586 9.2631,3.945 8.9691,4.206 C8.0471,5.022 5.9181,4.905 4.9171,4.374 C3.5911,3.671 3.5631,4.973 3.5631,4.973 L3.9641,6.962 L3.7121,7.013 L3.2151,4.794 C3.0881,4.029 3.5621,3.29 4.3111,3.09 C4.3901,3.067 4.4761,3.049 4.5611,3.025 C5.2571,2.837 6.0441,2.615 6.5971,2.441 C6.9201,2.327 7.1661,2.236 7.2641,2.175 C7.7171,1.882 9.2541,1.163 9.3991,3.108" id="Fill-66" fill="#5C3C36" mask="url(#mask-26)"></path>
                        </g>
                        <g id="Group-71">
                            <mask id="mask-28" fill="white">
                                <use xlink:href="#path-27"></use>
                            </mask>
                            <g id="Clip-70"></g>
                            <polygon id="Fill-69" fill="#F69C85" mask="url(#mask-28)" points="6.5524 10.92 6.2794 10.976 5.9584 11.62 7.2854 12.631 8.9584 12.294 9.1284 11.262 8.8634 10.571 8.5414 10.519"></polygon>
                        </g>
                        <g id="Group-74">
                            <mask id="mask-30" fill="white">
                                <use xlink:href="#path-29"></use>
                            </mask>
                            <g id="Clip-73"></g>
                            <path d="M11.7106,12.1842 L12.2896,15.0522 C12.5376,16.2762 11.7396,17.4702 10.5226,17.7162 L7.1016,18.4072 C5.8776,18.6542 4.6856,17.8632 4.4386,16.6392 L3.8586,13.7712 C3.6106,12.5462 4.4016,11.3542 5.6266,11.1072 L6.2786,10.9762 C6.4046,11.6012 7.0136,12.0042 7.6386,11.8782 C8.2646,11.7522 8.6676,11.1442 8.5416,10.5182 L9.0466,10.4162 C10.2646,10.1702 11.4636,10.9602 11.7106,12.1842" id="Fill-72" fill="#FEFEFE" mask="url(#mask-30)"></path>
                        </g>
                    </g>
                    <path d="M57.8697946,43.2128414 C57.1593105,39.6951716 53.7312742,37.4193836 50.2136811,38.1298832 C46.696088,38.8403828 44.4193545,42.2694889 45.1298387,45.7871586 C45.8413179,49.3048284 49.2693542,51.5806164 52.7879423,50.8701168 C56.3055354,50.1586221 58.5812739,46.7315062 57.8697946,43.2128414" id="Fill-76" fill="#F2B81A"></path>
                    <g id="Group-120" transform="translate(44.000000, 38.000000)">
                        <g id="Group-80">
                            <mask id="mask-32" fill="white">
                                <use xlink:href="#path-31"></use>
                            </mask>
                            <g id="Clip-79"></g>
                            <polygon id="Fill-78" fill="#F69C85" mask="url(#mask-32)" points="7.9938 10.9757 6.2788 11.3227 5.8968 9.4317 7.6108 9.0857"></polygon>
                        </g>
                        <g id="Group-83">
                            <mask id="mask-34" fill="white">
                                <use xlink:href="#path-33"></use>
                            </mask>
                            <g id="Clip-82"></g>
                            <path d="M8.7067,4.3546 L9.1637,6.6166 C9.4797,8.1806 8.4717,9.7006 6.9067,10.0166 C5.3437,10.3326 3.8237,9.3236 3.5077,7.7596 L3.0507,5.4976 C2.8247,4.3796 3.2747,3.2846 4.1287,2.6406 C4.8247,2.4516 5.6107,2.2306 6.1647,2.0566 C6.6377,2.0996 7.0867,2.2646 7.4777,2.5246 C7.9417,2.8326 8.3237,3.2826 8.5367,3.8206 C8.6117,3.9856 8.6697,4.1676 8.7067,4.3546" id="Fill-81" fill="#F69C85" mask="url(#mask-34)"></path>
                        </g>
                        <g id="Group-86">
                            <mask id="mask-36" fill="white">
                                <use xlink:href="#path-35"></use>
                            </mask>
                            <g id="Clip-85"></g>
                            <path d="M3.7018,6.5431 C3.6548,6.3091 3.4278,6.1581 3.1938,6.2061 C2.9608,6.2521 2.8088,6.4801 2.8558,6.7141 C2.9038,6.9471 3.1318,7.0991 3.3648,7.0511 C3.5978,7.0041 3.7498,6.7761 3.7018,6.5431" id="Fill-84" fill="#F69C85" mask="url(#mask-36)"></path>
                        </g>
                        <g id="Group-89">
                            <mask id="mask-38" fill="white">
                                <use xlink:href="#path-37"></use>
                            </mask>
                            <g id="Clip-88"></g>
                            <path d="M9.3581,5.4 C9.3111,5.167 9.0841,5.015 8.8501,5.063 C8.6161,5.11 8.4651,5.338 8.5121,5.571 C8.5591,5.805 8.7871,5.956 9.0211,5.908 C9.2541,5.861 9.4061,5.634 9.3581,5.4" id="Fill-87" fill="#F69C85" mask="url(#mask-38)"></path>
                        </g>
                        <g id="Group-92">
                            <mask id="mask-40" fill="white">
                                <use xlink:href="#path-39"></use>
                            </mask>
                            <g id="Clip-91"></g>
                            <path d="M8.9948,5.7784 L9.1638,6.6164 C9.4798,8.1804 8.4718,9.7004 6.9068,10.0164 C5.3438,10.3324 3.8238,9.3234 3.5078,7.7594 L3.2788,6.6284 L3.5318,6.5774 C3.5318,6.5774 4.1628,8.5694 5.4868,8.3014 C5.3828,7.6784 7.5648,7.3064 7.6758,7.9224 C7.6758,7.9224 9.1308,7.6834 8.9948,5.7784" id="Fill-90" fill="#5C3C36" mask="url(#mask-40)"></path>
                        </g>
                        <g id="Group-95">
                            <mask id="mask-42" fill="white">
                                <use xlink:href="#path-41"></use>
                            </mask>
                            <g id="Clip-94"></g>
                            <path d="M5.986,8.2408 C6.074,8.6738 7.154,8.4558 7.067,8.0228 L5.986,8.2408 Z" id="Fill-93" fill="#F69C85" mask="url(#mask-42)"></path>
                        </g>
                        <g id="Group-98">
                            <mask id="mask-44" fill="white">
                                <use xlink:href="#path-43"></use>
                            </mask>
                            <g id="Clip-97"></g>
                            <path d="M5.2819,5.7838 C5.1939,5.3498 4.1139,5.5688 4.2009,6.0018 L5.2819,5.7838 Z" id="Fill-96" fill="#5C3C36" mask="url(#mask-44)"></path>
                        </g>
                        <g id="Group-101">
                            <mask id="mask-46" fill="white">
                                <use xlink:href="#path-45"></use>
                            </mask>
                            <g id="Clip-100"></g>
                            <path d="M8.0456,5.2252 C7.9576,4.7922 6.8776,5.0102 6.9646,5.4432 L8.0456,5.2252 Z" id="Fill-99" fill="#5C3C36" mask="url(#mask-46)"></path>
                        </g>
                        <g id="Group-104">
                            <mask id="mask-48" fill="white">
                                <use xlink:href="#path-47"></use>
                            </mask>
                            <g id="Clip-103"></g>
                            <path d="M4.985,6.006 C4.962,5.889 4.847,5.813 4.73,5.837 C4.613,5.86 4.537,5.974 4.561,6.091 C4.585,6.209 4.699,6.284 4.816,6.261 C4.933,6.237 5.008,6.123 4.985,6.006" id="Fill-102" fill="#5C3C36" mask="url(#mask-48)"></path>
                        </g>
                        <g id="Group-107">
                            <mask id="mask-50" fill="white">
                                <use xlink:href="#path-49"></use>
                            </mask>
                            <g id="Clip-106"></g>
                            <path d="M7.7487,5.4474 C7.7257,5.3304 7.6107,5.2544 7.4937,5.2784 C7.3767,5.3014 7.3007,5.4164 7.3247,5.5334 C7.3487,5.6504 7.4627,5.7264 7.5797,5.7024 C7.6967,5.6784 7.7717,5.5644 7.7487,5.4474" id="Fill-105" fill="#5C3C36" mask="url(#mask-50)"></path>
                        </g>
                        <g id="Group-110">
                            <mask id="mask-52" fill="white">
                                <use xlink:href="#path-51"></use>
                            </mask>
                            <g id="Clip-109"></g>
                            <polygon id="Fill-108" fill="#5C3C36" mask="url(#mask-52)" points="8.3483 3.9635 8.9353 6.6325 9.1153 6.3735 8.5273 3.4625"></polygon>
                        </g>
                        <g id="Group-113">
                            <mask id="mask-54" fill="white">
                                <use xlink:href="#path-53"></use>
                            </mask>
                            <g id="Clip-112"></g>
                            <path d="M8.9655,2.7227 C8.9995,3.2007 8.8305,3.5607 8.5365,3.8207 C7.6135,4.6377 5.4855,4.5207 4.4845,3.9887 C3.1575,3.2867 3.1305,4.5877 3.1305,4.5877 L3.5315,6.5767 L3.2785,6.6287 L2.7815,4.4087 C2.6555,3.6447 3.1295,2.9047 3.8785,2.7047 C3.9565,2.6817 4.0435,2.6647 4.1285,2.6407 C4.8245,2.4517 5.6115,2.2307 6.1645,2.0557 C6.4875,1.9427 6.7335,1.8507 6.8305,1.7897 C7.2845,1.4977 8.8215,0.7787 8.9655,2.7227" id="Fill-111" fill="#5C3C36" mask="url(#mask-54)"></path>
                        </g>
                        <g id="Group-116">
                            <mask id="mask-56" fill="white">
                                <use xlink:href="#path-55"></use>
                            </mask>
                            <g id="Clip-115"></g>
                            <polygon id="Fill-114" fill="#F69C85" mask="url(#mask-56)" points="6.1198 10.5352 5.8468 10.5912 5.5248 11.2352 6.8518 12.2462 8.5258 11.9092 8.6958 10.8772 8.4308 10.1862 8.1078 10.1342"></polygon>
                        </g>
                        <g id="Group-119">
                            <mask id="mask-58" fill="white">
                                <use xlink:href="#path-57"></use>
                            </mask>
                            <g id="Clip-118"></g>
                            <path d="M11.278,11.7994 L11.857,14.6674 C12.104,15.8914 11.306,17.0854 10.089,17.3314 L6.669,18.0224 C5.444,18.2694 4.253,17.4784 4.006,16.2544 L3.425,13.3864 C3.178,12.1614 3.969,10.9694 5.194,10.7224 L5.846,10.5914 C5.972,11.2164 6.581,11.6194 7.206,11.4934 C7.832,11.3674 8.235,10.7594 8.108,10.1334 L8.614,10.0314 C9.832,9.7854 11.03,10.5754 11.278,11.7994" id="Fill-117" fill="#FEFEFE" mask="url(#mask-58)"></path>
                        </g>
                    </g>
                    <g id="Group-127" transform="translate(48.000000, 53.000000)">
                        <polygon id="Fill-121" fill="#DADDDF" points="28.9606 3.4288 16.7566 5.7098 16.2606 3.0538 28.4646 0.7728"></polygon>
                        <polygon id="Fill-123" fill="#DADDDF" points="40.3796 5.5704 17.7936 9.7924 17.2976 7.1364 39.8836 2.9144"></polygon>
                        <path d="M13.5221,7.8609 C12.8081,4.3259 9.3631,2.0389 5.8281,2.7529 C2.2931,3.4669 0.0051,6.9119 0.7191,10.4479 C1.4341,13.9829 4.8781,16.2699 8.4151,15.5549 C11.9501,14.8409 14.2361,11.3959 13.5221,7.8609" id="Fill-125" fill="#F2B81A"></path>
                    </g>
                    <g id="Group-170" transform="translate(48.000000, 55.000000)">
                        <g id="Group-130">
                            <mask id="mask-60" fill="white">
                                <use xlink:href="#path-59"></use>
                            </mask>
                            <g id="Clip-129"></g>
                            <polygon id="Fill-128" fill="#F69C85" mask="url(#mask-60)" points="8.5124 11.026 6.7984 11.372 6.4164 9.482 8.1304 9.135"></polygon>
                        </g>
                        <g id="Group-133">
                            <mask id="mask-62" fill="white">
                                <use xlink:href="#path-61"></use>
                            </mask>
                            <g id="Clip-132"></g>
                            <path d="M9.2262,4.4044 L9.6832,6.6674 C9.9992,8.2304 8.9902,9.7504 7.4262,10.0664 C5.8632,10.3824 4.3432,9.3734 4.0272,7.8094 L3.5702,5.5474 C3.3442,4.4294 3.7942,3.3344 4.6482,2.6904 C5.3442,2.5014 6.1302,2.2804 6.6842,2.1064 C7.1572,2.1494 7.6062,2.3154 7.9972,2.5744 C8.4612,2.8834 8.8432,3.3324 9.0562,3.8704 C9.1302,4.0354 9.1882,4.2184 9.2262,4.4044" id="Fill-131" fill="#F69C85" mask="url(#mask-62)"></path>
                        </g>
                        <g id="Group-136">
                            <mask id="mask-64" fill="white">
                                <use xlink:href="#path-63"></use>
                            </mask>
                            <g id="Clip-135"></g>
                            <path d="M4.2214,6.5929 C4.1744,6.3599 3.9474,6.2089 3.7134,6.2559 C3.4804,6.3029 3.3284,6.5309 3.3754,6.7639 C3.4224,6.9979 3.6514,7.1489 3.8844,7.1019 C4.1174,7.0539 4.2694,6.8269 4.2214,6.5929" id="Fill-134" fill="#F69C85" mask="url(#mask-64)"></path>
                        </g>
                        <g id="Group-139">
                            <mask id="mask-66" fill="white">
                                <use xlink:href="#path-65"></use>
                            </mask>
                            <g id="Clip-138"></g>
                            <path d="M9.8776,5.4503 C9.8306,5.2163 9.6036,5.0653 9.3686,5.1133 C9.1356,5.1593 8.9846,5.3883 9.0316,5.6213 C9.0786,5.8543 9.3066,6.0063 9.5396,5.9583 C9.7736,5.9113 9.9246,5.6833 9.8776,5.4503" id="Fill-137" fill="#F69C85" mask="url(#mask-66)"></path>
                        </g>
                        <g id="Group-142">
                            <mask id="mask-68" fill="white">
                                <use xlink:href="#path-67"></use>
                            </mask>
                            <g id="Clip-141"></g>
                            <path d="M9.5143,5.8282 L9.6833,6.6672 C9.9993,8.2302 8.9903,9.7502 7.4263,10.0662 C5.8633,10.3822 4.3433,9.3732 4.0273,7.8092 L3.7983,6.6782 L4.0513,6.6272 C4.0513,6.6272 4.6823,8.6192 6.0063,8.3512 C5.9023,7.7282 8.0843,7.3572 8.1953,7.9722 C8.1953,7.9722 9.6493,7.7332 9.5143,5.8282" id="Fill-140" fill="#5C3C36" mask="url(#mask-68)"></path>
                        </g>
                        <g id="Group-145">
                            <mask id="mask-70" fill="white">
                                <use xlink:href="#path-69"></use>
                            </mask>
                            <g id="Clip-144"></g>
                            <path d="M6.5055,8.2906 C6.5935,8.7246 7.6735,8.5056 7.5865,8.0726 L6.5055,8.2906 Z" id="Fill-143" fill="#F69C85" mask="url(#mask-70)"></path>
                        </g>
                        <g id="Group-148">
                            <mask id="mask-72" fill="white">
                                <use xlink:href="#path-71"></use>
                            </mask>
                            <g id="Clip-147"></g>
                            <path d="M5.8014,5.8336 C5.7134,5.4006 4.6324,5.6186 4.7204,6.0516 L5.8014,5.8336 Z" id="Fill-146" fill="#5C3C36" mask="url(#mask-72)"></path>
                        </g>
                        <g id="Group-151">
                            <mask id="mask-74" fill="white">
                                <use xlink:href="#path-73"></use>
                            </mask>
                            <g id="Clip-150"></g>
                            <path d="M8.5651,5.2755 C8.4771,4.8415 7.3971,5.0605 7.4841,5.4935 L8.5651,5.2755 Z" id="Fill-149" fill="#5C3C36" mask="url(#mask-74)"></path>
                        </g>
                        <g id="Group-154">
                            <mask id="mask-76" fill="white">
                                <use xlink:href="#path-75"></use>
                            </mask>
                            <g id="Clip-153"></g>
                            <path d="M5.5046,6.0558 C5.4816,5.9388 5.3666,5.8628 5.2496,5.8868 C5.1326,5.9098 5.0566,6.0248 5.0796,6.1418 C5.1046,6.2588 5.2186,6.3348 5.3356,6.3108 C5.4516,6.2868 5.5276,6.1728 5.5046,6.0558" id="Fill-152" fill="#5C3C36" mask="url(#mask-76)"></path>
                        </g>
                        <g id="Group-157">
                            <mask id="mask-78" fill="white">
                                <use xlink:href="#path-77"></use>
                            </mask>
                            <g id="Clip-156"></g>
                            <path d="M8.2682,5.4977 C8.2452,5.3807 8.1302,5.3047 8.0132,5.3287 C7.8962,5.3517 7.8202,5.4657 7.8442,5.5827 C7.8682,5.7007 7.9822,5.7757 8.0992,5.7527 C8.2162,5.7287 8.2912,5.6147 8.2682,5.4977" id="Fill-155" fill="#5C3C36" mask="url(#mask-78)"></path>
                        </g>
                        <g id="Group-160">
                            <mask id="mask-80" fill="white">
                                <use xlink:href="#path-79"></use>
                            </mask>
                            <g id="Clip-159"></g>
                            <polygon id="Fill-158" fill="#5C3C36" mask="url(#mask-80)" points="8.8678 4.0133 9.4548 6.6823 9.6348 6.4233 9.0458 3.5133"></polygon>
                        </g>
                        <g id="Group-163">
                            <mask id="mask-82" fill="white">
                                <use xlink:href="#path-81"></use>
                            </mask>
                            <g id="Clip-162"></g>
                            <path d="M9.485,2.773 C9.519,3.251 9.349,3.611 9.056,3.871 C8.133,4.688 6.005,4.571 5.004,4.039 C3.677,3.337 3.649,4.638 3.649,4.638 L4.051,6.627 L3.798,6.678 L3.301,4.459 C3.175,3.695 3.649,2.955 4.398,2.755 C4.476,2.732 4.563,2.715 4.648,2.69 C5.344,2.502 6.131,2.28 6.684,2.106 C7.007,1.992 7.252,1.901 7.35,1.84 C7.804,1.547 9.341,0.828 9.485,2.773" id="Fill-161" fill="#5C3C36" mask="url(#mask-82)"></path>
                        </g>
                        <g id="Group-166">
                            <mask id="mask-84" fill="white">
                                <use xlink:href="#path-83"></use>
                            </mask>
                            <g id="Clip-165"></g>
                            <polygon id="Fill-164" fill="#F69C85" mask="url(#mask-84)" points="6.6393 10.5855 6.3653 10.6405 6.0443 11.2845 7.3713 12.2965 9.0453 11.9585 9.2143 10.9275 8.9493 10.2365 8.6273 10.1835"></polygon>
                        </g>
                        <g id="Group-169">
                            <mask id="mask-86" fill="white">
                                <use xlink:href="#path-85"></use>
                            </mask>
                            <g id="Clip-168"></g>
                            <path d="M11.7966,11.8497 L12.3766,14.7177 C12.6236,15.9417 11.8256,17.1347 10.6086,17.3807 L7.1886,18.0727 C5.9636,18.3197 4.7726,17.5287 4.5256,16.3047 L3.9446,13.4357 C3.6976,12.2117 4.4886,11.0197 5.7136,10.7727 L6.3646,10.6407 C6.4916,11.2667 7.0996,11.6697 7.7256,11.5437 C8.3506,11.4167 8.7546,10.8087 8.6276,10.1837 L9.1336,10.0817 C10.3516,9.8357 11.5496,10.6247 11.7966,11.8497" id="Fill-167" fill="#FEFEFE" mask="url(#mask-86)"></path>
                        </g>
                    </g>
                    <g id="Group-175" transform="translate(99.000000, 113.000000)">
                        <path d="M86.4551625,24.7949229 C75.159992,52.5326578 51.2656398,73.8052361 21.8794125,81.5428747 L0.328128409,31.9111398 L63.2123216,0.328296386 L86.4551625,24.7949229 Z" id="Fill-171" fill="#4D3575"></path>
                        <path d="M63.2125193,0.328098795 C63.5545875,0.994966265 60.2021216,3.4440988 54.5550307,6.82486988 C49.108633,10.081159 41.5060193,14.2206771 32.9721102,18.5004843 C26.1613943,21.9267012 19.7837011,24.9340265 14.493508,27.2290386 C6.30166705,30.8103639 0.731689773,32.7180988 0.328326136,31.9109422 C-0.0908556818,31.0899542 4.95118977,27.6479301 12.9739739,23.0737133 C17.9072693,20.2827494 23.9577239,17.0422675 30.5677466,13.7247253 C38.3878602,9.80156867 45.6484057,6.42079759 51.3281216,4.0180988 C58.2634057,1.08783373 62.8398034,-0.401009639 63.2125193,0.328098795" id="Fill-173" fill="#E69024"></path>
                    </g>
                </g>
            </g>
        </g>
    </g>
</svg>