<?xml version="1.0" encoding="UTF-8"?>
<svg width="198px" height="200px" viewBox="0 0 198 200" version="1.1" xmlns="http://www.w3.org/2000/svg" xmlns:xlink="http://www.w3.org/1999/xlink">
    <!-- Generator: Sketch 55.2 (78181) - https://sketchapp.com -->
    <title>ONBOARD</title>
    <desc>Created with Sketch.</desc>
    <g id="Page-1" stroke="none" stroke-width="1" fill="none" fill-rule="evenodd">
        <g id="Partnerspage" transform="translate(-593.000000, -3389.000000)">
            <g id="ONBOARD" transform="translate(593.000000, 3389.000000)">
                <g id="Add-Copy" transform="translate(0.000000, 2.000000)" fill="#FFFFFF">
                    <circle id="Oval-Copy" cx="99" cy="99" r="99"></circle>
                </g>
                <g id="Group-59" transform="translate(4.000000, 0.000000)">
                    <path d="M126.8839,111.1847 L135.7799,125.4737 C136.6779,126.9157 138.5349,127.4237 140.0419,126.6397 C141.6979,125.7787 142.2909,123.7027 141.3399,122.0967 L133.5579,108.9597 L126.8839,111.1847 Z" id="Fill-1" fill="#EBAD8F"></path>
                    <path d="M134.339,111.1847 L143.235,125.4737 C144.134,126.9157 145.99,127.4237 147.498,126.6397 C149.154,125.7787 149.747,123.7027 148.795,122.0967 L141.013,108.9597 L134.339,111.1847 Z" id="Fill-3" fill="#EBAD8F"></path>
                    <polygon id="Fill-5" fill="#F1CABA" points="126.8839 102.7769 148.0849 100.2609 127.7099 97.6509 135.9469 99.8739"></polygon>
                    <path d="M190.253,101.1373 C190.253,108.6553 189.379,115.9583 187.722,122.9703 C186.602,127.7883 185.098,132.4833 183.257,136.9783 C180.296,144.2663 176.444,151.1093 171.826,157.3693 C159.152,174.6603 140.741,187.5183 119.399,193.1343 C116.53,193.8863 113.584,194.5143 110.607,195.0063 C105.575,195.8343 100.404,196.2633 95.126,196.2633 C77.206,196.2633 60.451,191.3083 46.137,182.7003 C45.17,182.1023 44.219,181.5043 43.268,180.8903 C28.338,171.1623 16.31,157.3693 8.776,141.0753 C3.145,128.9233 0,115.3913 0,101.1373 C0,48.6033 42.592,6.0113 95.126,6.0113 C147.661,6.0113 190.253,48.6033 190.253,101.1373" id="Fill-7" fill="#6844B0"></path>
                    <polygon id="Fill-9" fill="#E6AB90" points="126.5323 53.6022 121.6613 61.2212 121.6613 53.6022"></polygon>
                    <polygon id="Fill-11" fill="#E6AB90" points="126.5323 60.8058 121.6613 68.4248 121.6613 60.8058"></polygon>
                    <path d="M118.3487,94.2501 L71.9047,94.2501 C68.9757,94.2501 66.6007,91.8751 66.6007,88.9461 L66.6007,5.3041 C66.6007,2.3751 68.9757,0.0001 71.9047,0.0001 L118.3487,0.0001 C121.2777,0.0001 123.6527,2.3751 123.6527,5.3041 L123.6527,88.9461 C123.6527,91.8751 121.2777,94.2501 118.3487,94.2501" id="Fill-13" fill="#96ABBF"></path>
                    <path d="M69.3175,88.2144 L69.3175,6.0354 C69.3175,4.2114 70.7965,2.7324 72.6215,2.7324 L117.6315,2.7324 C119.4565,2.7324 120.9355,4.2114 120.9355,6.0354 L120.9355,88.2144 C120.9355,90.0394 119.4565,91.5184 117.6315,91.5184 L72.6215,91.5184 C70.7965,91.5184 69.3175,90.0394 69.3175,88.2144" id="Fill-15" fill="#FEFEFE"></path>
                    <path d="M107.0196,27.0455 C107.0196,20.6195 101.8096,15.4095 95.3826,15.4095 C88.9576,15.4095 83.7476,20.6195 83.7476,27.0455 C83.7476,33.4725 88.9576,38.6815 95.3826,38.6815 C101.8096,38.6815 107.0196,33.4725 107.0196,27.0455 Z" id="Stroke-17" stroke="#6B5694" stroke-width="0.5" stroke-linecap="round" stroke-linejoin="round" stroke-dasharray="2.03,2.03"></path>
                    <path d="M98.754,24.1251 C98.754,22.2621 97.243,20.7521 95.381,20.7521 C93.518,20.7521 92.007,22.2621 92.007,24.1251 C92.007,25.9881 93.518,27.4991 95.381,27.4991 C97.243,27.4991 98.754,25.9881 98.754,24.1251" id="Fill-19" fill="#6B5694"></path>
                    <path d="M100.1163,31.9278 C98.7513,32.8178 97.1243,33.3398 95.3753,33.3398 C93.6413,33.3398 92.0153,32.8178 90.6493,31.9278 C91.2633,29.8868 93.1503,28.4148 95.3753,28.4148 C97.6153,28.4148 99.5033,29.8868 100.1163,31.9278" id="Fill-21" fill="#6B5694"></path>
                    <path d="M102.6319,76.92 C102.6319,72.774 99.2719,69.414 95.1259,69.414 C90.9809,69.414 87.6199,72.774 87.6199,76.92 C87.6199,81.066 90.9809,84.426 95.1259,84.426 C99.2719,84.426 102.6319,81.066 102.6319,76.92" id="Fill-23" fill="#06B5B0"></path>
                    <path d="M95.1261,73.8897 L95.1261,79.9507" id="Stroke-25" stroke="#FEFEFE" stroke-linecap="round" stroke-linejoin="round"></path>
                    <path d="M98.1563,76.92 L92.0953,76.92" id="Stroke-27" stroke="#FEFEFE" stroke-linecap="round" stroke-linejoin="round"></path>
                    <path d="M125.6349,38.1451 L113.1359,38.1451 C112.5339,38.1451 112.0459,37.6571 112.0459,37.0561 L112.0459,33.0021 C112.0459,31.3111 113.4169,29.9401 115.1089,29.9401 L125.6349,29.9401 C126.7809,29.9401 127.7099,30.8701 127.7099,32.0161 L127.7099,36.0691 C127.7099,37.2151 126.7809,38.1451 125.6349,38.1451" id="Fill-29" fill="#F1CABA"></path>
                    <path d="M125.6349,47.9981 L109.8019,47.9981 C109.1999,47.9981 108.7129,47.5101 108.7129,46.9091 L108.7129,42.8551 C108.7129,41.1641 110.0839,39.7931 111.7759,39.7931 L125.6349,39.7931 C126.7809,39.7931 127.7099,40.7231 127.7099,41.8691 L127.7099,45.9221 C127.7099,47.0691 126.7809,47.9981 125.6349,47.9981" id="Fill-31" fill="#F1CABA"></path>
                    <path d="M125.8878,57.8512 L113.3898,57.8512 C112.7878,57.8512 112.2998,57.3632 112.2998,56.7622 L112.2998,52.7082 C112.2998,51.0172 113.6708,49.6462 115.3628,49.6462 L125.8878,49.6462 C127.0338,49.6462 127.9638,50.5762 127.9638,51.7222 L127.9638,55.7752 C127.9638,56.9222 127.0338,57.8512 125.8878,57.8512" id="Fill-33" fill="#F1CABA"></path>
                    <path d="M125.6349,67.7042 L116.2499,67.7042 C115.6489,67.7042 115.1609,67.2172 115.1609,66.6152 L115.1609,62.5612 C115.1609,60.8712 116.5319,59.4992 118.2239,59.4992 L125.6349,59.4992 C126.7809,59.4992 127.7099,60.4292 127.7099,61.5752 L127.7099,65.6282 C127.7099,66.7752 126.7809,67.7042 125.6349,67.7042" id="Fill-35" fill="#F1CABA"></path>
                    <path d="M187.7218,122.9703 C186.6018,127.7883 185.0978,132.4833 183.2568,136.9783 C180.2958,144.2663 176.4448,151.1093 171.8258,157.3693 L149.8858,121.7733 C147.2458,117.5083 142.8898,114.6083 137.9488,113.7953 C132.7168,112.9513 124.7228,111.9853 113.3538,111.4173 C109.9478,111.2483 107.6158,107.8733 108.7208,104.6363 C108.7208,104.6363 114.8728,104.2983 121.3478,103.5463 C127.8228,102.7943 134.6348,101.5973 135.9538,99.8793 C135.9538,99.8793 110.6538,93.9103 100.4198,85.8873 C98.9778,84.7513 98.3648,82.8643 98.7468,81.0843 C98.7468,81.0843 115.1028,87.6813 130.9978,89.1393 C146.4798,90.5663 161.8228,93.8953 173.0538,104.6513 L187.7218,122.9703 Z" id="Fill-37" fill="#F1CABA"></path>
                    <path d="M108.713,104.6388 C108.713,104.6388 108.711,109.1348 111.311,108.9598 C113.91,108.7858 118.991,108.9648 118.991,108.9648 L116.275,104.0708 L108.713,104.6388 Z" id="Fill-39" fill="#FEFEFE"></path>
                    <polygon id="Fill-41" fill="#FEFEFE" points="98.754 81.0807 98.638 82.0277 104.529 84.0637 105.043 83.3367"></polygon>
                    <path d="M117.2647,36.9889 L113.2047,37.2709 C113.0067,34.0809 116.2027,32.3599 116.2027,32.3599 L117.2647,36.9889 Z" id="Fill-43" fill="#FEFEFE"></path>
                    <path d="M112.2999,43.8956 C112.2999,43.8956 109.5209,44.8796 110.0049,47.1246 L112.2999,47.1246 L112.2999,43.8956 Z" id="Fill-45" fill="#FEFEFE"></path>
                    <path d="M114.9249,52.5563 C114.9249,52.5563 113.2319,52.9593 113.5539,57.1543 L114.9249,57.1543 L114.9249,52.5563 Z" id="Fill-47" fill="#FEFEFE"></path>
                    <path d="M117.087,61.9308 C117.087,61.9308 116.015,62.7528 116.086,66.8618 L117.087,66.8618 L117.087,61.9308 Z" id="Fill-49" fill="#FEFEFE"></path>
                    <path d="M77.6505,137.7765 L46.1365,182.7005 C45.1705,182.1025 44.2185,181.5045 43.2675,180.8905 C28.3385,171.1625 16.3095,157.3695 8.7755,141.0755 L25.7305,111.3865 L77.6505,137.7765 Z" id="Fill-51" fill="#4D3575"></path>
                    <path d="M77.6505,137.7765 C77.1745,138.6965 72.3275,137.2555 65.2995,134.2935 C60.9585,132.4675 55.7875,130.0745 50.3095,127.2815 C45.1845,124.6895 40.4905,122.0955 36.6085,119.7945 C29.6115,115.6215 25.2395,112.3385 25.7305,111.3865 C26.2365,110.3745 32.0365,112.1995 40.1835,115.7595 C44.0495,117.4465 48.4535,119.5185 53.0715,121.8655 C58.4875,124.6275 63.4435,127.3585 67.4475,129.7675 C74.0455,133.7415 78.1265,136.8405 77.6505,137.7765" id="Fill-53" fill="#E69024"></path>
                    <path d="M93.9913,94.2486 C93.9913,94.2486 89.5723,105.0806 80.5353,112.0616 C75.8553,115.6666 71.9583,120.1936 69.4423,125.5326 L67.4473,129.7676 L65.3003,134.2936 C60.9583,132.4676 55.7873,130.0746 50.3093,127.2816 C45.1843,124.6886 40.4903,122.0956 36.6083,119.7946 L40.1833,115.7596 L46.2133,108.9626 C48.2083,106.7066 49.2353,103.7606 49.0663,100.7536 L47.6393,75.4076 C47.5173,73.1826 48.0533,70.9886 49.1593,69.0556 L55.5563,58.0386 C56.7543,55.9526 58.5953,54.3106 60.7893,53.3436 L81.5783,44.1386 C81.5783,44.1386 84.5403,49.6766 81.5783,52.9916 C78.6333,56.3206 66.6033,63.3166 66.6033,63.3166 C66.6033,63.3166 74.3833,77.1256 72.5883,94.2486 L93.9913,94.2486 Z" id="Fill-55" fill="#F1CABA"></path>
                    <polygon id="Fill-57" fill="#FEFEFE" points="73.2638 47.8233 82.3088 45.9113 81.5838 44.1433"></polygon>
                </g>
            </g>
        </g>
    </g>
</svg>